<svg xmlns="http://www.w3.org/2000/svg" width="35.247" height="26.848" viewBox="0 0 35.247 26.848"><g transform="translate(0 -61)"><g transform="translate(0 61)"><path d="M32.149,61H3.1A3.1,3.1,0,0,0,0,64.1V84.75a3.1,3.1,0,0,0,3.1,3.1H32.149a3.1,3.1,0,0,0,3.1-3.1V64.1A3.1,3.1,0,0,0,32.149,61Zm-.428,2.065L17.689,77.1,3.536,63.065ZM2.065,84.323V64.516l9.946,9.861Zm1.46,1.46,9.952-9.952,3.487,3.457a1.033,1.033,0,0,0,1.457,0l3.4-3.4,9.9,9.9Zm29.656-1.46-9.9-9.9,9.9-9.9Z" transform="translate(0 -61)"/></g></g></svg>