<svg xmlns="http://www.w3.org/2000/svg" width="56" height="55.976" viewBox="0 0 56 55.976"><g transform="translate(0 -0.106)"><path d="M5.182,23.054V33.178a1.631,1.631,0,0,0,1.413,1.6,4.362,4.362,0,0,1,0,8.644,1.631,1.631,0,0,0-1.413,1.6V49.3a1.625,1.625,0,0,0,1.623,1.623h4.253a6,6,0,0,0,11.886,0H33.118a1.571,1.571,0,0,0,1.553-1.375,4.388,4.388,0,0,1,2.718-3.52.82.82,0,1,0-.611-1.523,6.03,6.03,0,0,0-3.727,4.777H28.82V45.358a2,2,0,0,0-1.633-1.968A4.362,4.362,0,0,1,23.638,39.1q0-.1,0-.2a4.364,4.364,0,0,1,3.544-4.091h0a2.008,2.008,0,0,0,1.634-1.968V28.926h4.232a6,6,0,0,0,11.894,0h4.231v4.252a1.631,1.631,0,0,0,1.413,1.6,4.363,4.363,0,0,1,0,8.644,1.631,1.631,0,0,0-1.413,1.6v4.252H44.946a6.03,6.03,0,0,0-3.727-4.777.82.82,0,1,0-.611,1.523,4.388,4.388,0,0,1,2.718,3.52,1.571,1.571,0,0,0,1.553,1.375H49.2A1.625,1.625,0,0,0,50.818,49.3V45.051a6,6,0,0,0,0-11.894V23.034a1.631,1.631,0,0,0-1.413-1.6,4.364,4.364,0,0,1-3.461-2.711.82.82,0,1,0-1.524.606,6.009,6.009,0,0,0,4.758,3.73v4.232H44.925a1.59,1.59,0,0,0-.575.108A1.639,1.639,0,0,0,43.32,28.7a4.363,4.363,0,0,1-8.644,0,1.64,1.64,0,0,0-.772-1.178,1.6,1.6,0,0,0-.833-.235H28.82V23.361a.363.363,0,0,1,.3-.355,6,6,0,0,0,0-11.8.362.362,0,0,1-.3-.355V6.929h4.252a1.631,1.631,0,0,0,1.6-1.413,4.363,4.363,0,0,1,8.644,0,1.631,1.631,0,0,0,1.6,1.413h4.252v4.232a6.008,6.008,0,0,0-4.758,3.729.82.82,0,0,0,1.524.606A4.364,4.364,0,0,1,49.4,12.785a1.631,1.631,0,0,0,1.413-1.6V6.911a1.625,1.625,0,0,0-1.623-1.623h-4.25a6,6,0,0,0-11.893,0H22.927a1.631,1.631,0,0,0-1.6,1.413,4.363,4.363,0,0,1-8.644,0,1.631,1.631,0,0,0-1.6-1.413H6.805A1.625,1.625,0,0,0,5.182,6.911V11.16a6,6,0,0,0,0,11.894ZM26.883,45a.365.365,0,0,1,.169.081.36.36,0,0,1,.127.274v3.924H22.924a1.633,1.633,0,0,0-1.6,1.407,4.362,4.362,0,0,1-8.638,0,1.633,1.633,0,0,0-1.6-1.407H6.823V45.051a6,6,0,0,0,0-11.894V28.926h4.225a1.646,1.646,0,0,0,1.632-1.413,4.363,4.363,0,0,1,8.644,0,1.646,1.646,0,0,0,1.632,1.413H27.18v3.924a.363.363,0,0,1-.3.355,6,6,0,0,0,0,11.8ZM5.41,12.785a1.631,1.631,0,0,0,1.413-1.6V6.929h4.232a6,6,0,0,0,11.894,0H27.18v3.924a2.009,2.009,0,0,0,1.634,1.968,4.363,4.363,0,0,1,0,8.572,2,2,0,0,0-1.634,1.968v3.924l-4.232,0a6,6,0,0,0-11.893.005s0,0,0,0H6.823V23.033a1.631,1.631,0,0,0-1.413-1.6,4.362,4.362,0,0,1,0-8.644Z"/></g></svg>