<svg xmlns="http://www.w3.org/2000/svg" width="25.785" height="19.641" viewBox="0 0 25.785 19.641"><g transform="translate(0 -61)"><path d="M203.2,169.892l-6.043-3.777a.755.755,0,0,0-1.156.641v7.554a.755.755,0,0,0,1.156.641l6.043-3.777a.755.755,0,0,0,0-1.281Zm-5.688,3.055v-4.828l3.863,2.414Z" transform="translate(-186.128 -99.712)"/><path d="M22.008,61H3.777A3.781,3.781,0,0,0,0,64.777V76.864a3.781,3.781,0,0,0,3.777,3.777H22.008a3.781,3.781,0,0,0,3.777-3.777V64.777A3.781,3.781,0,0,0,22.008,61Zm2.266,15.864a2.269,2.269,0,0,1-2.266,2.266H3.777a2.269,2.269,0,0,1-2.266-2.266V64.777a2.269,2.269,0,0,1,2.266-2.266H22.008a2.269,2.269,0,0,1,2.266,2.266Z"/></g></svg>