<svg xmlns="http://www.w3.org/2000/svg" width="33.247" height="30" viewBox="0 0 33.247 30"><g transform="translate(0 -25)"><path d="M100.052,249H97.974a.974.974,0,1,0,0,1.948h2.078a.974.974,0,1,0,0-1.948Z" transform="translate(-90.701 -209.455)"/><path d="M100.052,313H97.974a.974.974,0,0,0,0,1.948h2.078a.974.974,0,0,0,0-1.948Z" transform="translate(-90.701 -269.299)"/><path d="M100.052,377H97.974a.974.974,0,1,0,0,1.948h2.078a.974.974,0,1,0,0-1.948Z" transform="translate(-90.701 -329.143)"/><path d="M228.052,249h-2.078a.974.974,0,1,0,0,1.948h2.078a.974.974,0,1,0,0-1.948Z" transform="translate(-210.39 -209.455)"/><path d="M228.052,313h-2.078a.974.974,0,0,0,0,1.948h2.078a.974.974,0,0,0,0-1.948Z" transform="translate(-210.39 -269.299)"/><path d="M228.052,377h-2.078a.974.974,0,1,0,0,1.948h2.078a.974.974,0,1,0,0-1.948Z" transform="translate(-210.39 -329.143)"/><path d="M356.052,249h-2.078a.974.974,0,1,0,0,1.948h2.078a.974.974,0,1,0,0-1.948Z" transform="translate(-330.078 -209.455)"/><path d="M356.052,313h-2.078a.974.974,0,1,0,0,1.948h2.078a.974.974,0,1,0,0-1.948Z" transform="translate(-330.078 -269.299)"/><path d="M356.052,377h-2.078a.974.974,0,1,0,0,1.948h2.078a.974.974,0,1,0,0-1.948Z" transform="translate(-330.078 -329.143)"/><path d="M30.325,27.6H27.987V25.974a.974.974,0,0,0-1.948,0V27.6H17.6V25.974a.974.974,0,0,0-1.948,0V27.6H7.208V25.974a.974.974,0,0,0-1.948,0V27.6H2.922A2.925,2.925,0,0,0,0,30.519V52.078A2.925,2.925,0,0,0,2.922,55h27.4a2.925,2.925,0,0,0,2.922-2.922V30.519A2.925,2.925,0,0,0,30.325,27.6ZM1.948,30.519a.975.975,0,0,1,.974-.974H5.26v1.623a.974.974,0,0,0,1.948,0V29.545h8.442v1.623a.974.974,0,0,0,1.948,0V29.545h8.442v1.623a.974.974,0,0,0,1.948,0V29.545h2.338a.975.975,0,0,1,.974.974v3.831H1.948ZM30.325,53.052H2.922a.975.975,0,0,1-.974-.974V36.3H31.3V52.078A.975.975,0,0,1,30.325,53.052Z"/></g></svg>