<svg xmlns="http://www.w3.org/2000/svg" width="35.281" height="35.141" viewBox="0 0 35.281 35.141"><g transform="translate(0 -0.998)"><g transform="translate(3.977 7.191)"><path d="M56.889,93.559h1.136a2.813,2.813,0,0,1,2.841-2.841V89.582A3.952,3.952,0,0,0,56.889,93.559Z" transform="translate(-56.889 -89.582)"/></g><g transform="translate(0 0.998)"><g transform="translate(0 0)"><path d="M33.519,13.61a6.287,6.287,0,0,0-5.738-6.363,9.645,9.645,0,0,0-17.214-1.7C4.659,3.043.227,9.179,2.1,13.269a5.085,5.085,0,0,0,3.011,9.2H9.09V21.337H5.113a3.976,3.976,0,0,1-2.045-7.386l.455-.227c-2.5-4.147,2.1-10,7.5-6.7,0,0,2.272-4.943,7.726-4.943,6.363,0,8.238,6.249,8.238,6.249a5.175,5.175,0,0,1,5.4,5.795,4.033,4.033,0,0,1,1.761,3.3,3.952,3.952,0,0,1-3.977,3.977H26.191V22.53h3.977a5.092,5.092,0,0,0,5.113-5.113A5.345,5.345,0,0,0,33.519,13.61Z" transform="translate(0 -0.998)"/></g></g><g transform="translate(9.644 14.562)"><path d="M158.762,211.747l-4.431-4.375-.4.4-1.023-1.023a7.954,7.954,0,1,0-3.238,3.238l1.023,1.023-.4.4,4.431,4.375a2.852,2.852,0,1,0,4.034-4.034Zm-17.669-3.977a6.824,6.824,0,0,1,0-9.658c3.409-3.409,7.9-1.761,9.658,0a6.829,6.829,0,0,1-9.658,9.658Zm9.545,1.591a7.915,7.915,0,0,0,1.591-1.591l.852.852-1.591,1.591Zm7.272,5.624a1.647,1.647,0,0,1-2.386,0l-3.579-3.579,2.386-2.386,3.579,3.579A1.647,1.647,0,0,1,157.91,214.985Z" transform="translate(-137.954 -195.029)"/></g><g transform="translate(13.067 18.553)"><path d="M195.443,258.371v-6.249h-1.136v6.249H193.17v-5.113h-1.136v5.113H190.9v-3.977h-1.136v3.977h-1.136v-2.841h-1.136v2.841h-.568v1.136h9.09v-1.136Z" transform="translate(-186.921 -252.122)"/></g></g></svg>