<svg xmlns="http://www.w3.org/2000/svg" width="29.752" height="32" viewBox="0 0 29.752 32"><g transform="translate(-17.981)"><g transform="translate(17.981)"><path d="M47.269,28.647,37.952,13.506V4.571h.076a2.286,2.286,0,0,0,0-4.571h-10.3a2.286,2.286,0,0,0,0,4.571h-.066v8.934L18.422,28.647A2.061,2.061,0,0,0,20.314,32H45.448a2.226,2.226,0,0,0,2.069-1.03A2.286,2.286,0,0,0,47.269,28.647ZM26.6,2.286a1.142,1.142,0,0,1,1.138-1.143h10.3a1.143,1.143,0,0,1,0,2.286h-10.3A1.142,1.142,0,0,1,26.6,2.286ZM36.81,4.571v8.571h-8V4.571Zm9.728,25.84a1.21,1.21,0,0,1-1.09.446H20.314a1.206,1.206,0,0,1-1.087-.447,1.173,1.173,0,0,1,.205-1.13l9.2-14.994h8.5l9.2,14.994A1.177,1.177,0,0,1,46.538,30.412Z" transform="translate(-17.981)"/></g></g></svg>