<svg xmlns="http://www.w3.org/2000/svg" width="24.579" height="30.5" viewBox="0 0 24.579 30.5"><g transform="translate(-49.7)"><path d="M73.832,11.843a.447.447,0,0,0,.447-.447V8.751a1.424,1.424,0,0,0-.42-1.014L70.489,4.367a1.459,1.459,0,0,0-.158-.137v-2.8A1.435,1.435,0,0,0,68.9,0H51.134A1.435,1.435,0,0,0,49.7,1.434v1.08a.447.447,0,1,0,.894,0V1.434a.541.541,0,0,1,.54-.54H68.9a.541.541,0,0,1,.54.54V3.948H55.081a1.435,1.435,0,0,0-1.434,1.434v18.3H51.134a.541.541,0,0,1-.54-.54V4.3a.447.447,0,1,0-.894,0V23.145a1.435,1.435,0,0,0,1.434,1.434h2.514v4.488A1.435,1.435,0,0,0,55.081,30.5H72.845a1.435,1.435,0,0,0,1.434-1.434V13.183a.447.447,0,0,0-.894,0V29.066a.541.541,0,0,1-.54.54H55.081a.541.541,0,0,1-.54-.54V5.381a.541.541,0,0,1,.54-.54H69.438V7.355a1.435,1.435,0,0,0,1.434,1.434h2.514V11.4A.447.447,0,0,0,73.832,11.843Zm-3.5-4.488V5.473L72.753,7.9H70.871A.541.541,0,0,1,70.331,7.355Z"/><path d="M237.825,135.4a.924.924,0,0,0,.923-.923v-1.021a.924.924,0,0,0-.923-.923h-4.968a.924.924,0,0,0-.923.923v1.021a.924.924,0,0,0,.923.923Zm-5-.923v-1.021a.03.03,0,0,1,.03-.03h4.968a.03.03,0,0,1,.03.03v1.021a.03.03,0,0,1-.03.03h-4.968A.03.03,0,0,1,232.828,134.478Z" transform="translate(-171.378 -124.639)"/><path d="M165.667,199.247a.447.447,0,0,0,.447.447H179.93a.447.447,0,0,0,0-.894H166.114A.447.447,0,0,0,165.667,199.247Z" transform="translate(-109.059 -186.957)"/><path d="M166.114,232.827H179.93a.447.447,0,0,0,0-.894H166.114a.447.447,0,1,0,0,.894Z" transform="translate(-109.059 -218.117)"/><path d="M166.114,265.961H179.93a.447.447,0,0,0,0-.894H166.114a.447.447,0,0,0,0,.894Z" transform="translate(-109.059 -249.277)"/><path d="M215.813,299.094h7.9a.447.447,0,0,0,0-.894h-7.9a.447.447,0,1,0,0,.894Z" transform="translate(-155.797 -280.436)"/><path d="M323.338,369.279a.447.447,0,0,0,.575-.261l.261-.7h1.6l.261.7a.447.447,0,1,0,.837-.314l-1.48-3.948a.447.447,0,0,0-.837,0l-1.48,3.948A.447.447,0,0,0,323.338,369.279Zm1.637-3.093.466,1.241h-.931Z" transform="translate(-257.064 -342.755)"/><path d="M286.027,340.122a4.394,4.394,0,1,0-4.394-4.394A4.4,4.4,0,0,0,286.027,340.122Zm0-7.9a3.5,3.5,0,1,1-3.5,3.5A3.5,3.5,0,0,1,286.027,332.227Z" transform="translate(-218.117 -311.595)"/></g></svg>