<svg xmlns="http://www.w3.org/2000/svg" width="30.752" height="40.372" viewBox="0 0 30.752 40.372"><g transform="translate(-61)"><path d="M91.406,9.809,81.944.347A1.191,1.191,0,0,0,81.107,0H64.548A3.552,3.552,0,0,0,61,3.548V36.824a3.552,3.552,0,0,0,3.548,3.548H88.2a3.552,3.552,0,0,0,3.548-3.548V10.645A1.2,1.2,0,0,0,91.406,9.809ZM82.29,4.038l5.424,5.424H83.473A1.184,1.184,0,0,1,82.29,8.28ZM88.2,38.007H64.548a1.184,1.184,0,0,1-1.183-1.183V3.548a1.184,1.184,0,0,1,1.183-1.183H79.925V8.28a3.552,3.552,0,0,0,3.548,3.548h5.914v25A1.184,1.184,0,0,1,88.2,38.007Z"/><path d="M194.011,242H182.183a1.183,1.183,0,1,0,0,2.366h11.828a1.183,1.183,0,1,0,0-2.366Z" transform="translate(-110.538 -222.918)"/><path d="M194.011,302H182.183a1.183,1.183,0,1,0,0,2.366h11.828a1.183,1.183,0,1,0,0-2.366Z" transform="translate(-110.538 -278.187)"/><path d="M194.011,362H182.183a1.183,1.183,0,1,0,0,2.366h11.828a1.183,1.183,0,1,0,0-2.366Z" transform="translate(-110.538 -333.455)"/><circle cx="1" cy="1" r="1" transform="translate(66 19)"/><circle cx="1" cy="1" r="1" transform="translate(66 24)"/><ellipse cx="1" cy="1.5" rx="1" ry="1.5" transform="translate(66 28)"/></g></svg>