<svg xmlns="http://www.w3.org/2000/svg" width="56" height="56" viewBox="0 0 56 56"><path d="M47.017,28A19.017,19.017,0,1,0,13.972,40.825L9.928,44.869a.933.933,0,0,0,1.32,1.32l4.05-4.05A19.006,19.006,0,0,0,47.017,28Zm-9.84-.933H28.933V11.726C31.532,13.777,36.8,18.914,37.177,27.067ZM27.067,10.876V27.067H18.824a20.266,20.266,0,0,1,5.15-12.377.933.933,0,0,0-1.405-1.229,22.1,22.1,0,0,0-5.613,13.606h-6.08A17.174,17.174,0,0,1,27.067,10.876ZM10.876,28.933h6.079a22.708,22.708,0,0,0,7.926,15.932A17.183,17.183,0,0,1,10.876,28.933Zm7.947,0h8.244V44.265A20.924,20.924,0,0,1,18.822,28.933ZM28.933,45.124V28.933h8.242a20.338,20.338,0,0,1-5.469,12.734.933.933,0,0,0,1.38,1.257,22.164,22.164,0,0,0,5.957-13.99H42a.933.933,0,0,0,0-1.867H39.045a22.712,22.712,0,0,0-7.922-15.931,17.15,17.15,0,0,1-2.19,33.988Zm20.059,2.665-4.524-4.524a.933.933,0,0,0-1.32,1.32L47.7,49.134a4.49,4.49,0,1,0,1.295-1.345Zm2.516,6.344a2.625,2.625,0,1,1,2.625-2.625A2.628,2.628,0,0,1,51.508,54.133ZM6.866,8.3l4.549,4.549a.933.933,0,1,0,1.32-1.32L8.211,7.007A4.491,4.491,0,1,0,6.866,8.3ZM4.492,1.867A2.625,2.625,0,1,1,1.867,4.492,2.628,2.628,0,0,1,4.492,1.867Zm0,45.15a4.492,4.492,0,1,0,4.492,4.492A4.5,4.5,0,0,0,4.492,47.017Zm0,7.117a2.625,2.625,0,1,1,2.625-2.625A2.628,2.628,0,0,1,4.492,54.133Zm39.977-41.4,4.524-4.524A4.491,4.491,0,1,0,47.7,6.866l-4.549,4.549a.933.933,0,0,0,1.32,1.32Zm7.04-10.868a2.625,2.625,0,1,1-2.625,2.625A2.628,2.628,0,0,1,51.508,1.867Z"/></svg>