<svg xmlns="http://www.w3.org/2000/svg" width="56" height="56" viewBox="0 0 56 56"><g transform="translate(23.583)"><path d="M14.417,8.833a4.417,4.417,0,1,1,4.417-4.417A4.43,4.43,0,0,1,14.417,8.833Zm0-6.625a2.086,2.086,0,0,0-2.208,2.208,2.086,2.086,0,0,0,2.208,2.208,2.086,2.086,0,0,0,2.208-2.208A2.086,2.086,0,0,0,14.417,2.208Z" transform="translate(-10)"/></g><g transform="translate(19.167 11.792)"><path d="M24.563,13.833a1.043,1.043,0,0,1-1.1-1.1V10.521a3.4,3.4,0,0,0-3.313-3.313H13.521a3.4,3.4,0,0,0-3.312,3.313v2.208a1.043,1.043,0,0,1-1.1,1.1,1.043,1.043,0,0,1-1.1-1.1V10.521A5.467,5.467,0,0,1,13.521,5h6.625a5.467,5.467,0,0,1,5.521,5.521v2.208A1.043,1.043,0,0,1,24.563,13.833Z" transform="translate(-8 -5)"/></g><g transform="translate(42.75 35.375)"><path d="M22.417,23.833a4.417,4.417,0,1,1,4.417-4.417A4.43,4.43,0,0,1,22.417,23.833Zm0-6.625a2.086,2.086,0,0,0-2.208,2.208,2.086,2.086,0,0,0,2.208,2.208,2.086,2.086,0,0,0,2.208-2.208A2.086,2.086,0,0,0,22.417,17.208Z" transform="translate(-18 -15)"/></g><g transform="translate(38.333 47.167)"><path d="M32.563,28.833a1.043,1.043,0,0,1-1.1-1.1V25.521a3.4,3.4,0,0,0-3.312-3.312H21.521a3.4,3.4,0,0,0-3.312,3.313v2.208a1.1,1.1,0,1,1-2.208,0V25.521A5.467,5.467,0,0,1,21.521,20h6.625a5.467,5.467,0,0,1,5.521,5.521v2.208A1.043,1.043,0,0,1,32.563,28.833Z" transform="translate(-16 -20)"/></g><g transform="translate(4.417 35.375)"><path d="M6.417,23.833a4.417,4.417,0,1,1,4.417-4.417A4.43,4.43,0,0,1,6.417,23.833Zm0-6.625a2.086,2.086,0,0,0-2.208,2.208,2.086,2.086,0,0,0,2.208,2.208,2.086,2.086,0,0,0,2.208-2.208A2.086,2.086,0,0,0,6.417,17.208Z" transform="translate(-2 -15)"/></g><g transform="translate(0 47.167)"><path d="M16.563,28.833a1.043,1.043,0,0,1-1.1-1.1V25.521a3.4,3.4,0,0,0-3.313-3.312H5.521a3.4,3.4,0,0,0-3.313,3.313v2.208a1.043,1.043,0,0,1-1.1,1.1,1.043,1.043,0,0,1-1.1-1.1V25.521A5.467,5.467,0,0,1,5.521,20h6.625a5.467,5.467,0,0,1,5.521,5.521v2.208A1.043,1.043,0,0,1,16.563,28.833Z" transform="translate(0 -20)"/></g><g transform="translate(18.877 23.848)"><path d="M9.115,25.458a1.147,1.147,0,0,1-.883-.442,1.091,1.091,0,0,1,.221-1.546l7.288-5.3V11.1a1.1,1.1,0,0,1,2.208,0v7.729a1.147,1.147,0,0,1-.442.883L9.778,25.237a.811.811,0,0,1-.663.221Z" transform="translate(-7.991 -10)"/></g><g transform="translate(27.145 31.768)"><path d="M20.344,21.24a.811.811,0,0,1-.663-.221L11.953,15.5a1.1,1.1,0,0,1,1.325-1.767l7.729,5.521a1.091,1.091,0,0,1,.221,1.546A1.147,1.147,0,0,1,20.344,21.24Z" transform="translate(-11.491 -13.491)"/></g></svg>